<?xml version="1.0" standalone="no"?>
<!DOCTYPE svg PUBLIC "-//W3C//DTD SVG 20010904//EN"
 "http://www.w3.org/TR/2001/REC-SVG-20010904/DTD/svg10.dtd">
<svg version="1.0" xmlns="http://www.w3.org/2000/svg"
 width="512.000000pt" height="512.000000pt" viewBox="0 0 512.000000 512.000000"
 preserveAspectRatio="xMidYMid meet">

<g transform="translate(0.000000,512.000000) scale(0.100000,-0.100000)"
fill="#FFF0F5" stroke="none">
<path d="M17 3868 c293 -751 619 -1350 942 -1728 434 -508 886 -786 1446 -888
123 -23 362 -46 415 -41 l35 4 8 107 c18 256 120 489 240 547 78 38 251 25
361 -27 84 -40 124 -78 298 -279 164 -189 226 -246 321 -293 111 -54 173 -60
629 -60 l410 0 -86 165 c-131 253 -190 332 -524 694 -174 189 -206 245 -200
350 6 114 126 340 332 629 225 317 326 488 395 673 21 57 48 123 60 147 l21
42 -507 0 -508 0 -47 -148 c-49 -152 -95 -248 -209 -430 -238 -381 -537 -702
-708 -760 -85 -29 -139 -5 -182 83 -61 126 -71 276 -56 820 8 278 8 292 -11
325 -39 70 -86 82 -377 99 -93 6 -265 8 -382 4 l-212 -6 24 -46 c12 -25 44
-73 69 -105 84 -108 107 -217 107 -495 0 -377 -69 -623 -194 -688 -46 -23
-141 -13 -208 23 -63 34 -214 181 -279 272 -143 199 -327 544 -469 880 l-74
172 -448 0 -449 0 17 -42z"/>
</g>
</svg>
